<svg width="247" height="67" viewBox="0 0 247 67" fill="none" xmlns="http://www.w3.org/2000/svg">
<g clip-path="url(#clip0_1153_1113)">
<path d="M125.268 44.9058C119.658 44.9058 115.357 43.5027 112.367 40.6966C109.384 37.8826 107.893 33.7365 107.893 28.2425V7.79565H116.943V28.2425C116.943 31.561 117.622 33.9335 118.979 35.3681C120.344 36.8027 122.435 37.5042 125.26 37.5042C130.839 37.5042 133.64 34.4144 133.64 28.2425V7.79565H141.902V28.2425C141.902 33.705 140.45 37.8511 137.562 40.6729C134.666 43.4948 130.571 44.9058 125.268 44.9058Z" fill="#FFBF00"/>
<path d="M184.646 21.6528C184.646 23.7022 184.362 25.5624 183.794 27.2335C183.226 28.8966 182.397 30.3233 181.3 31.4978C180.203 32.6723 178.862 33.5866 177.292 34.2488C175.721 34.903 173.914 35.2419 171.902 35.2419H162.007V44.6456H154.029V25.8462H172.683C173.93 25.8462 174.885 25.4599 175.571 24.6875C176.258 23.915 176.597 22.8903 176.597 21.6055C176.597 20.3206 176.25 19.3038 175.571 18.555C174.893 17.8062 173.922 17.4278 172.683 17.4278H154.029L154.242 7.85864H171.942C173.954 7.85864 175.761 8.19758 177.331 8.87547C178.901 9.54547 180.235 10.4992 181.324 11.7052C182.413 12.9112 183.233 14.3616 183.802 16.0405C184.37 17.7195 184.654 19.5955 184.654 21.6449" fill="#FFBF00"/>
<path d="M201.162 7.85083H193.137V44.622H201.162V7.85083Z" fill="#FFBF00"/>
<path d="M87.9757 35.5968V30.9304H80.8661V24.9477H95.2117V40.1055C93.4126 41.4691 91.282 42.5569 88.8122 43.3767C86.3345 44.1964 83.9593 44.5984 81.6709 44.5984C78.1437 44.5984 75.0032 43.7708 72.2492 42.1234C69.4953 40.4681 67.3806 38.2137 65.8971 35.3603C64.4136 32.5069 63.6719 29.2751 63.6719 25.6965C63.6719 22.3938 64.4136 19.3749 65.8971 16.6397C67.3806 13.9045 69.5032 11.7211 72.2808 10.1131C75.0426 8.48937 78.1753 7.67749 81.6788 7.67749C84.5906 7.67749 87.2498 8.19773 89.6565 9.23031C91.5424 10.0343 93.0811 11.1773 94.2884 12.6513L89.767 17.625C88.7412 16.7501 87.6838 16.1037 86.5948 15.686C85.1666 15.1263 83.5411 14.8504 81.6788 14.8504C78.6093 14.8504 76.2026 15.8436 74.4429 17.8378C72.6832 19.8321 71.7995 22.449 71.7995 25.6965C71.7995 29.3145 72.6596 32.1601 74.3956 34.2489C76.1316 36.3377 78.5541 37.3782 81.6788 37.3782C82.8309 37.3782 83.6673 37.3624 84.2118 37.3388C84.7563 37.3073 85.3797 37.1575 86.0977 36.8737C86.8079 36.5978 87.4471 36.1722 87.9994 35.6204" fill="#FFBF00"/>
<path fill-rule="evenodd" clip-rule="evenodd" d="M241.714 40.2788C238.186 43.8101 233.681 45.5758 228.189 45.5758C222.697 45.5758 218.183 43.8101 214.664 40.2788C211.137 36.7475 209.385 32.231 209.385 26.7448C209.385 20.9277 211.137 16.2219 214.64 12.6039C218.144 8.9859 222.665 7.18872 228.189 7.18872C233.712 7.18872 238.234 8.99378 241.737 12.6039C245.241 16.2219 246.993 20.9277 246.993 26.7448C246.993 32.2388 245.233 36.7475 241.714 40.2788ZM228.189 38.4895C231.377 38.4895 233.989 37.3939 236.048 35.2105C238.1 33.0271 239.133 30.1973 239.133 26.7291C239.133 23.2608 238.1 20.234 236.024 17.8457C233.949 15.4573 231.337 14.2592 228.189 14.2592C225.04 14.2592 222.46 15.4573 220.377 17.8457C218.286 20.234 217.244 23.2057 217.244 26.7291C217.244 30.2525 218.278 33.0271 220.353 35.2105C222.428 37.3939 225.04 38.4895 228.189 38.4895Z" fill="#FFBF00"/>
<path fill-rule="evenodd" clip-rule="evenodd" d="M241.082 57.7698C241.556 57.5018 242.108 57.2969 242.739 57.1471C243.371 56.9973 244.01 56.9264 244.665 56.9264C245.564 56.9264 246.338 57.0525 246.993 57.3126L246.432 59.1729C245.951 58.9916 245.391 58.9049 244.76 58.9049C244.128 58.9049 243.6 58.9916 243.221 59.1571V66.7163H241.09V57.7777H241.082V57.7698ZM236.608 60.8203C236.529 60.0242 236.316 59.4409 235.953 59.0704C235.59 58.6999 235.062 58.5107 234.359 58.5107C233.657 58.5107 233.152 58.692 232.781 59.0467C232.41 59.4093 232.166 59.9926 232.071 60.8124H236.616L236.608 60.8203ZM234.509 67C233.113 67 231.984 66.5586 231.148 65.6837C230.311 64.8087 229.885 63.5633 229.885 61.9396C229.885 60.3158 230.272 59.0152 231.061 58.1245C231.85 57.2338 232.963 56.7845 234.415 56.7845C235.867 56.7845 236.987 57.2574 237.713 58.2191C238.439 59.1807 238.786 60.5602 238.755 62.3573H232.039C232.032 63.2559 232.237 63.9496 232.687 64.454C233.128 64.9506 233.728 65.2029 234.509 65.2029C235.006 65.2029 235.527 65.124 236.08 64.9822C236.624 64.8324 237.153 64.6353 237.666 64.3989L238.321 66.0699C237.713 66.3537 237.09 66.5823 236.411 66.7399C235.748 66.9054 235.109 66.9922 234.501 66.9922L234.509 67ZM219.059 57.7856C219.635 57.4939 220.306 57.2574 221.063 57.084C221.821 56.9106 222.578 56.8239 223.336 56.8239C224.819 56.8239 225.908 57.0998 226.579 57.6595C227.25 58.2191 227.589 59.1019 227.589 60.3079V66.7084H225.474V60.639C225.474 59.9847 225.293 59.4882 224.93 59.165C224.567 58.8418 224.03 58.6763 223.344 58.6763C223.004 58.6763 222.649 58.7314 222.263 58.8339C221.876 58.9364 221.529 59.0704 221.197 59.2202V66.7163H219.067V57.7934H219.059V57.7856ZM215.145 66.9054C214.309 66.9054 213.614 66.6611 213.054 66.1724C212.494 65.6916 212.218 65.0137 212.218 64.1545V58.7709H210.655V57.0367H212.218V54.3489H214.411V57.0367H216.715V58.7709H214.411V63.7446C214.411 64.588 214.751 65.0137 215.429 65.0137C215.887 65.0137 216.305 64.927 216.66 64.7457L217.22 66.401C216.834 66.5823 216.487 66.7084 216.155 66.7872C215.839 66.866 215.5 66.8976 215.137 66.8976L215.145 66.9054ZM203.837 57.7698C204.311 57.5018 204.863 57.2969 205.495 57.1471C206.126 56.9973 206.765 56.9264 207.42 56.9264C208.319 56.9264 209.093 57.0525 209.748 57.3126L209.188 59.1729C208.706 58.9916 208.146 58.9049 207.515 58.9049C206.883 58.9049 206.355 58.9916 205.976 59.1571V66.7163H203.845V57.7777H203.837V57.7698ZM198.906 62.712C198.196 62.4283 197.422 62.2864 196.578 62.2864C195.994 62.2864 195.521 62.4125 195.181 62.6726C194.842 62.9327 194.668 63.3032 194.668 63.784C194.668 64.2649 194.858 64.6669 195.236 64.9349C195.615 65.195 196.12 65.329 196.751 65.329C197.698 65.329 198.416 65.1634 198.914 64.8482V62.7199L198.906 62.712ZM196.901 56.7845C198.196 56.8003 199.206 57.0683 199.932 57.6043C200.657 58.1403 201.02 58.9522 201.02 60.0557V65.9359C200.681 66.1803 200.105 66.4167 199.269 66.6453C198.432 66.8818 197.596 66.9922 196.744 66.9922C195.378 66.9922 194.345 66.7163 193.627 66.1724C192.909 65.6285 192.546 64.8166 192.546 63.7367C192.546 62.8066 192.885 62.0736 193.564 61.5455C194.242 61.0173 195.173 60.7572 196.349 60.7572C197.249 60.7572 198.093 60.9227 198.89 61.2538V60.237C198.89 59.1256 198.227 58.5659 196.886 58.5659C196.428 58.5659 195.931 58.6447 195.402 58.7866C194.873 58.9364 194.376 59.1334 193.903 59.3699L193.287 57.6989C193.863 57.4151 194.471 57.1865 195.094 57.0289C195.726 56.8633 196.317 56.7766 196.886 56.7766H196.901V56.7845ZM185.681 60.3079C186.596 60.3079 187.243 60.1109 187.63 59.7246C188.016 59.3384 188.214 58.7787 188.214 58.0615C188.214 57.3047 188.016 56.7214 187.63 56.3273C187.243 55.9332 186.588 55.7283 185.681 55.7283H183.045V60.3079H185.681ZM180.796 53.8917H185.98C187.464 53.8917 188.616 54.2385 189.421 54.9243C190.226 55.6179 190.62 56.6269 190.62 57.9432C190.62 59.2596 190.218 60.3237 189.413 61.0567C188.6 61.7898 187.464 62.1524 185.988 62.1524H183.061V66.7084H180.804V53.8838L180.796 53.8917ZM170.877 60.8203C170.798 60.0242 170.585 59.4409 170.222 59.0704C169.859 58.6999 169.331 58.5107 168.628 58.5107C167.926 58.5107 167.421 58.692 167.05 59.0467C166.679 59.4093 166.435 59.9926 166.34 60.8124H170.885L170.877 60.8203ZM168.786 67C167.39 67 166.261 66.5586 165.425 65.6837C164.588 64.8087 164.162 63.5633 164.162 61.9396C164.162 60.3158 164.549 59.0152 165.338 58.1245C166.127 57.2338 167.24 56.7845 168.692 56.7845C170.143 56.7845 171.264 57.2574 171.99 58.2191C172.716 59.1807 173.063 60.5602 173.032 62.3573H166.316C166.308 63.2559 166.514 63.9496 166.963 64.454C167.405 64.9506 168.005 65.2029 168.786 65.2029C169.283 65.2029 169.804 65.124 170.357 64.9822C170.901 64.8324 171.43 64.6353 171.943 64.3989L172.598 66.0699C171.99 66.3537 171.367 66.5823 170.688 66.7399C170.025 66.9054 169.386 66.9922 168.778 66.9922L168.786 67ZM159.735 53.3872H161.85V66.7163H159.735V53.3872ZM153.999 66.9212C152.626 66.9212 151.505 66.5034 150.621 65.6758C149.738 64.8482 149.304 63.6027 149.304 61.9317C149.304 60.2606 149.73 58.9285 150.582 58.0851C151.434 57.2417 152.578 56.816 153.999 56.816C154.551 56.816 155.127 56.9027 155.743 57.0683C156.358 57.2338 156.934 57.4545 157.487 57.7383L156.847 59.4724C155.893 58.9443 154.938 58.6842 153.999 58.6842C153.178 58.6842 152.539 58.9364 152.089 59.433C151.639 59.9296 151.418 60.7099 151.418 61.7583C151.418 62.8697 151.631 63.6973 152.073 64.2255C152.507 64.7615 153.154 65.0216 153.999 65.0216C154.914 65.0216 155.869 64.7536 156.887 64.2097L157.502 65.9438C156.95 66.2276 156.374 66.4562 155.751 66.6375C155.135 66.8187 154.551 66.9054 153.999 66.9054H154.007L153.999 66.9212ZM146.936 57.1156L146.952 66.7084H144.822V57.1156H146.936ZM146.992 53.2769V55.4366H144.735V53.2769H146.992ZM138.193 56.8318C139.385 56.8318 140.308 57.1471 140.955 57.7777C141.602 58.4162 141.934 59.3699 141.934 60.6705V66.7084H139.819V60.9622C139.819 60.2054 139.637 59.63 139.266 59.2517C138.904 58.8654 138.367 58.6763 137.657 58.6763C137.294 58.6763 136.923 58.7315 136.544 58.8418C136.157 58.9522 135.802 59.1019 135.463 59.2911L135.447 66.7084H133.333V53.001H135.463V57.4782C136.41 57.0446 137.317 56.8239 138.201 56.8239H138.193V56.8318ZM128.858 60.8203C128.78 60.0242 128.566 59.4409 128.203 59.0704C127.841 58.6999 127.312 58.5107 126.61 58.5107C125.907 58.5107 125.402 58.692 125.031 59.0467C124.66 59.4093 124.416 59.9926 124.321 60.8124H128.866L128.858 60.8203ZM126.759 67C125.363 67 124.234 66.5586 123.398 65.6837C122.562 64.8087 122.135 63.5633 122.135 61.9396C122.135 60.3158 122.522 59.0152 123.311 58.1245C124.1 57.2338 125.213 56.7845 126.665 56.7845C128.117 56.7845 129.237 57.2574 129.963 58.2191C130.689 59.1807 131.036 60.5602 131.005 62.3573H124.29C124.282 63.2559 124.487 63.9496 124.937 64.454C125.379 64.9506 125.978 65.2029 126.759 65.2029C127.257 65.2029 127.777 65.124 128.33 64.9822C128.874 64.8324 129.403 64.6353 129.916 64.3989L130.571 66.0699C129.963 66.3537 129.34 66.5823 128.661 66.7399C127.983 66.8976 127.359 66.9922 126.752 66.9922L126.759 67ZM116.912 66.7163H114.56L109.707 53.8917H112.232L115.791 64.0599L119.413 53.9074L121.891 53.8917L116.912 66.7163ZM97.6737 57.7698C98.1472 57.5018 98.6995 57.2969 99.3308 57.1471C99.9621 56.9973 100.601 56.9264 101.256 56.9264C102.156 56.9264 102.929 57.0525 103.584 57.3126L103.024 59.1729C102.542 58.9916 101.982 58.9049 101.351 58.9049C100.72 58.9049 100.191 58.9916 99.8121 59.1571V66.7163H97.6816V57.7777H97.6737V57.7698ZM90.6272 67C89.2542 67 88.1889 66.6611 87.4393 65.999C86.6896 65.3369 86.3188 64.3594 86.3188 63.0904V57.0367H88.4493V62.8224C88.4493 63.6343 88.6229 64.2176 88.9701 64.588C89.3173 64.9585 89.8696 65.1477 90.6272 65.1477C91.3847 65.1477 91.937 64.9585 92.2921 64.5802C92.6472 64.2018 92.8208 63.6106 92.8208 62.8224V57.0367H94.8567V63.0904C94.8567 64.3594 94.4937 65.3211 93.7598 65.999C93.026 66.6611 91.9844 67 90.6272 67ZM79.3195 65.2107C80.1797 65.2107 80.8346 64.927 81.2607 64.3673C81.6868 63.8077 81.9156 62.9722 81.9156 61.8686C81.9156 60.7651 81.7026 59.9217 81.2765 59.3778C80.8504 58.8339 80.1954 58.558 79.3195 58.558C78.4437 58.558 77.7966 58.826 77.3863 59.3699C76.9681 59.9059 76.7629 60.7414 76.7629 61.8686C76.7629 62.9958 76.976 63.8392 77.4021 64.391C77.8282 64.9427 78.4673 65.2186 79.3274 65.2186H79.3195V65.2107ZM79.3353 67C77.7808 67 76.613 66.5665 75.8318 65.6916C75.0427 64.8166 74.656 63.5476 74.656 61.8607C74.656 60.1739 75.0427 58.8812 75.8239 58.0457C76.5972 57.2102 77.765 56.7845 79.3195 56.7845C80.874 56.7845 82.0656 57.218 82.8547 58.0693C83.6437 58.9206 84.0383 60.1897 84.0383 61.8529C84.0383 63.516 83.6359 64.7614 82.8152 65.6522C82.0024 66.5429 80.8425 66.9922 79.3432 66.9922L79.3353 67ZM70.7501 66.7163H68.4933V61.175L63.6641 53.8838H66.418L69.5822 59.1098L72.7938 53.8838H75.3741L70.758 61.2065V66.7005H70.7501V66.7163Z" fill="#FFBF00"/>
<path d="M53.4765 22.9613C53.4765 22.5987 53.2398 22.2676 52.8768 22.1573L48.8603 20.8882C48.6946 20.2261 48.4974 19.5798 48.2843 18.9413C48.0634 18.2949 47.803 17.6486 47.5189 17.0259L49.9098 13.2581C50.0992 12.9665 50.0913 12.5566 49.8467 12.2728L46.351 7.95329C46.1853 7.74835 45.9486 7.62224 45.6882 7.62224C45.6014 7.62224 45.5067 7.638 45.4199 7.66165L41.4193 9.00953C40.8906 8.56812 40.354 8.15824 39.8016 7.77988C39.2572 7.40153 38.6732 7.03894 38.0735 6.69212L37.7973 2.27012C37.7895 1.90753 37.5369 1.56859 37.1661 1.46612L31.7766 0.0236471C31.7056 0 31.6267 0 31.5557 0C31.2953 0 31.027 0.118235 30.8771 0.354706L28.4309 3.77565C28.2415 3.76776 28.0679 3.752 27.8864 3.752C27.5155 3.73624 27.1683 3.72835 26.8606 3.72835C26.395 3.72835 25.9137 3.73624 25.4166 3.76777C25.1088 3.78353 24.7774 3.80718 24.446 3.84659L21.6368 0.433529C21.479 0.212824 21.2186 0.0867059 20.9582 0.0867059C20.8635 0.0867059 20.7531 0.102471 20.6584 0.149765L15.4346 2.12035C15.119 2.23859 14.8902 2.56176 14.8902 2.91647L14.9138 7.12565C14.3536 7.47247 13.817 7.84294 13.2962 8.22129C12.7675 8.60753 12.2625 9.03318 11.7733 9.46671L7.45695 8.30012C7.37804 8.28435 7.30702 8.27647 7.23601 8.27647C6.95983 8.27647 6.69154 8.40259 6.53372 8.64694L3.46417 13.2424C3.24323 13.534 3.21955 13.9439 3.44839 14.2513L5.91823 17.6565C5.65783 18.2713 5.43689 18.8861 5.23962 19.5246C5.03445 20.1631 4.86085 20.8094 4.71093 21.4715L0.536658 23.048C0.221023 23.1584 -0.0078125 23.4736 -0.0078125 23.8205V23.8599L0.19735 29.3696C0.181568 29.7401 0.402513 30.0948 0.773384 30.2052L4.77406 31.5373C4.93976 32.2309 5.12914 32.9167 5.35009 33.5788C5.58681 34.2725 5.83932 34.9425 6.13918 35.5888L3.72457 39.3408C3.53519 39.6325 3.53519 40.0345 3.76402 40.3261L7.21233 44.6299C7.37804 44.8742 7.63844 45.0082 7.91462 45.0082C8.00142 45.0082 8.08822 44.9925 8.17502 44.9688L12.1836 43.6604C12.7202 44.1175 13.2646 44.5432 13.8328 44.9294C14.393 45.3235 14.9848 45.7019 15.5924 46.0487L15.8686 50.4707C15.8686 50.8333 16.1211 51.1722 16.4999 51.2747L21.8894 52.7329C21.9604 52.7487 22.0393 52.7566 22.1024 52.7566C22.3707 52.7566 22.6311 52.6384 22.7968 52.4019L25.2509 48.9809C25.4402 48.9888 25.6296 49.0046 25.8111 49.0125C26.1978 49.0282 26.5529 49.0361 26.8685 49.0361C27.3577 49.0361 27.8548 49.0204 28.3599 48.9967C28.6992 48.9731 29.0385 48.9336 29.3857 48.9021L32.2343 52.3467C32.3921 52.5359 32.6288 52.6462 32.8813 52.6462C32.976 52.6462 33.0865 52.6305 33.1812 52.5911L38.3576 50.6047C38.7048 50.4944 38.9336 50.1633 38.9336 49.7928L38.8942 45.5836C39.4544 45.2368 39.991 44.8585 40.5118 44.4722C41.0405 44.0781 41.5376 43.6604 42.0347 43.2189L46.3589 44.354C46.43 44.3698 46.501 44.3776 46.572 44.3776C46.8482 44.3776 47.1165 44.2515 47.2743 43.9993L50.3123 39.3881C50.5332 39.0965 50.549 38.6866 50.3123 38.3792L47.8266 34.9898C48.087 34.3513 48.3238 33.6892 48.5368 33.0113C48.742 32.3492 48.9156 31.6555 49.0576 30.9698L53.2161 29.3224C53.5239 29.2041 53.7527 28.8809 53.7527 28.5262V28.4868L53.4686 22.9613H53.4844H53.4765ZM50.478 27.9114L48.2133 28.81L47.0454 29.2751L46.7929 30.5047C46.6667 31.1195 46.5089 31.7265 46.3195 32.3334C46.1301 32.9404 45.9249 33.5315 45.6882 34.0991L45.199 35.2972L45.9644 36.3534L47.8503 38.9152L45.9328 41.8316L44.9228 41.5715L42.6344 40.9646L41.4193 40.6493L40.4881 41.4927C40.0384 41.8868 39.5807 42.2652 39.123 42.6199C38.6575 42.9667 38.1761 43.2978 37.6711 43.6131L36.5664 44.3067V45.6073L36.6058 48.7918L33.339 50.0451L32.6052 49.1622L31.1611 47.4281L30.3563 46.4586L29.1095 46.6005C28.8018 46.632 28.4861 46.6635 28.1942 46.6793C27.7286 46.7108 27.2788 46.7187 26.8448 46.7187C26.5686 46.7187 26.2451 46.7187 25.9058 46.6951C25.7322 46.6951 25.5665 46.6793 25.3929 46.6714L24.0988 46.5768L23.3413 47.6409L21.4869 50.2264L18.1096 49.312L17.9045 45.9147L17.8256 44.6614L16.7287 44.0308C16.1843 43.7234 15.6477 43.3845 15.1505 43.0219C14.6534 42.6593 14.1484 42.2809 13.6828 41.8868L12.6886 41.0434L11.4418 41.4454L8.41964 42.4386L6.23387 39.7034L8.07244 36.85L8.75105 35.7859L8.23815 34.6351C7.97775 34.0518 7.74102 33.4448 7.53586 32.83C7.33859 32.2309 7.1571 31.6161 7.00717 30.9934L6.71521 29.7244L5.48423 29.3224L2.46203 28.3213L2.33578 24.8294L5.5158 23.6313L6.69154 23.182L6.96772 21.9602C7.09397 21.3769 7.25179 20.7858 7.43328 20.2182C7.61477 19.6586 7.81993 19.0911 8.04877 18.5393L8.56167 17.3412L7.79626 16.2771L5.93401 13.7074L7.87517 10.7988L11.1657 11.6895L12.373 12.0206L13.312 11.1851C13.7539 10.7909 14.2115 10.4126 14.6771 10.0736C15.1427 9.72682 15.624 9.39576 16.129 9.08835L17.2337 8.41047V7.10988L17.2101 3.93329L18.6146 3.40518L20.4769 2.69576L22.639 5.33635L23.436 6.30588L24.6906 6.17976C24.9826 6.14824 25.2666 6.11671 25.5507 6.10094C25.9926 6.07729 26.4345 6.06153 26.8448 6.06153C27.1052 6.06153 27.4208 6.06153 27.768 6.08518C27.9259 6.08518 28.0837 6.09306 28.2494 6.10882L29.5435 6.19553L30.301 5.13141L32.1396 2.546L35.5169 3.44459L35.7299 6.84188L35.8088 8.09518L36.9057 8.71C37.4501 9.01741 37.9709 9.34847 38.4602 9.69529C38.9494 10.0342 39.4386 10.4047 39.9121 10.7988L40.9142 11.6422L42.1452 11.2245L45.1674 10.2155L47.369 12.9271L46.7377 13.936L45.5462 15.8041L44.8755 16.8682L45.4041 18.0191C45.6645 18.5787 45.8934 19.1541 46.0828 19.7374C46.2879 20.3128 46.4615 20.904 46.6114 21.4873L46.9192 22.7564L48.1659 23.1426L51.2039 24.0885L51.3854 27.5804L50.478 27.9351H50.4622L50.478 27.9114Z" fill="#FFBF00"/>
<path d="M53.4765 22.9613C53.4765 22.5987 53.2398 22.2676 52.8768 22.1573L48.8603 20.8882C48.6946 20.2261 48.4974 19.5798 48.2843 18.9413C48.0634 18.2949 47.803 17.6486 47.5189 17.0259L49.9098 13.2581C50.0992 12.9665 50.0913 12.5566 49.8467 12.2728L46.351 7.95329C46.1853 7.74835 45.9486 7.62224 45.6882 7.62224C45.6014 7.62224 45.5067 7.638 45.4199 7.66165L41.4193 9.00953C40.8906 8.56812 40.354 8.15824 39.8016 7.77988C39.2572 7.40153 38.6732 7.03894 38.0735 6.69212L37.7973 2.27012C37.7895 1.90753 37.5369 1.56859 37.1661 1.46612L31.7766 0.0236471C31.7056 0 31.6267 0 31.5557 0C31.2953 0 31.027 0.118235 30.8771 0.354706L28.4309 3.77565C28.2415 3.76776 28.0679 3.752 27.8864 3.752C27.5155 3.73624 27.1683 3.72835 26.8606 3.72835C26.395 3.72835 25.9137 3.73624 25.4166 3.76777C25.1088 3.78353 24.7774 3.80718 24.446 3.84659L21.6368 0.433529C21.479 0.212824 21.2186 0.0867059 20.9582 0.0867059C20.8635 0.0867059 20.7531 0.102471 20.6584 0.149765L15.4346 2.12035C15.119 2.23859 14.8902 2.56176 14.8902 2.91647L14.9138 7.12565C14.3536 7.47247 13.817 7.84294 13.2962 8.22129C12.7675 8.60753 12.2625 9.03318 11.7733 9.46671L7.45695 8.30012C7.37804 8.28435 7.30702 8.27647 7.23601 8.27647C6.95983 8.27647 6.69154 8.40259 6.53372 8.64694L3.46417 13.2424C3.24323 13.534 3.21955 13.9439 3.44839 14.2513L5.91823 17.6565C5.65783 18.2713 5.43689 18.8861 5.23962 19.5246C5.03445 20.1631 4.86085 20.8094 4.71093 21.4715L0.536658 23.048C0.221023 23.1584 -0.0078125 23.4736 -0.0078125 23.8205V23.8599L0.19735 29.3696C0.181568 29.7401 0.402513 30.0948 0.773384 30.2052L4.77406 31.5373C4.93976 32.2309 5.12914 32.9167 5.35009 33.5788C5.58681 34.2725 5.83932 34.9425 6.13918 35.5888L3.72457 39.3408C3.53519 39.6325 3.53519 40.0345 3.76402 40.3261L7.21233 44.6299C7.37804 44.8742 7.63844 45.0082 7.91462 45.0082C8.00142 45.0082 8.08822 44.9925 8.17502 44.9688L12.1836 43.6604C12.7202 44.1175 13.2646 44.5432 13.8328 44.9294C14.393 45.3235 14.9848 45.7019 15.5924 46.0487L15.8686 50.4707C15.8686 50.8333 16.1211 51.1722 16.4999 51.2747L21.8894 52.7329C21.9604 52.7487 22.0393 52.7566 22.1024 52.7566C22.3707 52.7566 22.6311 52.6384 22.7968 52.4019L25.2509 48.9809C25.4402 48.9888 25.6296 49.0046 25.8111 49.0125C26.1978 49.0282 26.5529 49.0361 26.8685 49.0361C27.3577 49.0361 27.8548 49.0204 28.3599 48.9967C28.6992 48.9731 29.0385 48.9336 29.3857 48.9021L32.2343 52.3467C32.3921 52.5359 32.6288 52.6462 32.8813 52.6462C32.976 52.6462 33.0865 52.6305 33.1812 52.5911L38.3576 50.6047C38.7048 50.4944 38.9336 50.1633 38.9336 49.7928L38.8942 45.5836C39.4544 45.2368 39.991 44.8585 40.5118 44.4722C41.0405 44.0781 41.5376 43.6604 42.0347 43.2189L46.3589 44.354C46.43 44.3698 46.501 44.3776 46.572 44.3776C46.8482 44.3776 47.1165 44.2515 47.2743 43.9993L50.3123 39.3881C50.5332 39.0965 50.549 38.6866 50.3123 38.3792L47.8266 34.9898C48.087 34.3513 48.3238 33.6892 48.5368 33.0113C48.742 32.3492 48.9156 31.6555 49.0576 30.9698L53.2161 29.3224C53.5239 29.2041 53.7527 28.8809 53.7527 28.5262V28.4868L53.4686 22.9613H53.4844H53.4765ZM50.478 27.9114L48.2133 28.81L47.0454 29.2751L46.7929 30.5047C46.6667 31.1195 46.5089 31.7265 46.3195 32.3334C46.1301 32.9404 45.9249 33.5315 45.6882 34.0991L45.199 35.2972L45.9644 36.3534L47.8503 38.9152L45.9328 41.8316L44.9228 41.5715L42.6344 40.9646L41.4193 40.6493L40.4881 41.4927C40.0384 41.8868 39.5807 42.2652 39.123 42.6199C38.6575 42.9667 38.1761 43.2978 37.6711 43.6131L36.5664 44.3067V45.6073L36.6058 48.7918L33.339 50.0451L32.6052 49.1622L31.1611 47.4281L30.3563 46.4586L29.1095 46.6005C28.8018 46.632 28.4861 46.6635 28.1942 46.6793C27.7286 46.7108 27.2788 46.7187 26.8448 46.7187C26.5686 46.7187 26.2451 46.7187 25.9058 46.6951C25.7322 46.6951 25.5665 46.6793 25.3929 46.6714L24.0988 46.5768L23.3413 47.6409L21.4869 50.2264L18.1096 49.312L17.9045 45.9147L17.8256 44.6614L16.7287 44.0308C16.1843 43.7234 15.6477 43.3845 15.1505 43.0219C14.6534 42.6593 14.1484 42.2809 13.6828 41.8868L12.6886 41.0434L11.4418 41.4454L8.41964 42.4386L6.23387 39.7034L8.07244 36.85L8.75105 35.7859L8.23815 34.6351C7.97775 34.0518 7.74102 33.4448 7.53586 32.83C7.33859 32.2309 7.1571 31.6161 7.00717 30.9934L6.71521 29.7244L5.48423 29.3224L2.46203 28.3213L2.33578 24.8294L5.5158 23.6313L6.69154 23.182L6.96772 21.9602C7.09397 21.3769 7.25179 20.7858 7.43328 20.2182C7.61477 19.6586 7.81993 19.0911 8.04877 18.5393L8.56167 17.3412L7.79626 16.2771L5.93401 13.7074L7.87517 10.7988L11.1657 11.6895L12.373 12.0206L13.312 11.1851C13.7539 10.7909 14.2115 10.4126 14.6771 10.0736C15.1427 9.72682 15.624 9.39576 16.129 9.08835L17.2337 8.41047V7.10988L17.2101 3.93329L18.6146 3.40518L20.4769 2.69576L22.639 5.33635L23.436 6.30588L24.6906 6.17976C24.9826 6.14824 25.2666 6.11671 25.5507 6.10094C25.9926 6.07729 26.4345 6.06153 26.8448 6.06153C27.1052 6.06153 27.4208 6.06153 27.768 6.08518C27.9259 6.08518 28.0837 6.09306 28.2494 6.10882L29.5435 6.19553L30.301 5.13141L32.1396 2.546L35.5169 3.44459L35.7299 6.84188L35.8088 8.09518L36.9057 8.71C37.4501 9.01741 37.9709 9.34847 38.4602 9.69529C38.9494 10.0342 39.4386 10.4047 39.9121 10.7988L40.9142 11.6422L42.1452 11.2245L45.1674 10.2155L47.369 12.9271L46.7377 13.936L45.5462 15.8041L44.8755 16.8682L45.4041 18.0191C45.6645 18.5787 45.8934 19.1541 46.0828 19.7374C46.2879 20.3128 46.4615 20.904 46.6114 21.4873L46.9192 22.7564L48.1659 23.1426L51.2039 24.0885L51.3854 27.5804L50.478 27.9351H50.4622L50.478 27.9114Z" fill="#FFBF00"/>
<path d="M27.5469 35.8648C26.1975 35.8648 24.9508 35.6205 23.775 35.1318C22.6072 34.6509 21.5814 33.9652 20.6897 33.106C19.8059 32.2468 19.1194 31.2221 18.6381 30.0713C18.1567 28.9205 17.9121 27.6672 17.9121 26.3193C17.9121 24.9714 18.1567 23.7575 18.6381 22.6067C19.1194 21.4559 19.8059 20.4469 20.6818 19.5956C21.5577 18.7443 22.5835 18.0665 23.7514 17.5935C24.9192 17.1206 26.1817 16.8762 27.5232 16.8762C28.4622 16.8762 29.3775 17.0023 30.2692 17.2703C31.1609 17.5383 31.9736 17.9088 32.6996 18.3817C33.4256 18.8547 34.0174 19.4065 34.475 20.0292L32.6207 21.9603C31.8237 21.2036 30.9952 20.6203 30.143 20.2341C29.2907 19.8479 28.4149 19.6508 27.5232 19.6508C26.5684 19.6508 25.6846 19.8242 24.8797 20.1474C24.0749 20.4863 23.3647 20.9514 22.7571 21.5505C22.1495 22.1495 21.6682 22.851 21.3446 23.655C21.0053 24.459 20.8475 25.334 20.8475 26.2956C20.8475 27.2573 21.029 28.0928 21.3841 28.9126C21.7392 29.7323 22.2284 30.4575 22.8597 31.0802C23.491 31.7029 24.2169 32.1837 25.0376 32.5385C25.8582 32.8932 26.7262 33.0745 27.6573 33.0745C28.3517 33.0745 29.0067 32.972 29.63 32.7749C30.2534 32.57 30.7979 32.2862 31.2792 31.9158C31.7527 31.5453 32.1236 31.1118 32.3919 30.6309C32.6601 30.1501 32.7864 29.6299 32.7864 29.0781V28.5421L33.1809 28.9126H27.4995V26.0749H35.7297C35.7849 26.3745 35.8165 26.6503 35.8323 26.9105C35.8481 27.1706 35.8559 27.4228 35.8559 27.6672C35.8559 28.881 35.6429 29.9925 35.2168 30.9935C34.7907 31.9946 34.2068 32.8537 33.4571 33.5789C32.7075 34.3041 31.8237 34.8638 30.8295 35.2579C29.8273 35.652 28.7463 35.8569 27.5705 35.8569" fill="#FFBF00"/>
<path d="M26.8762 42.9983C17.6991 42.9983 10.2344 35.5337 10.2344 26.3744C10.2344 17.2151 17.707 9.75049 26.8762 9.75049C36.0454 9.75049 43.5181 17.2151 43.5181 26.3744C43.5181 35.5337 36.0454 42.9983 26.8762 42.9983ZM26.8762 10.9092C18.3383 10.9092 11.3943 17.8457 11.3943 26.3744C11.3943 34.9031 18.3383 41.8396 26.8762 41.8396C35.4141 41.8396 42.3581 34.9031 42.3581 26.3744C42.3581 17.8457 35.4141 10.9092 26.8762 10.9092Z" fill="#FFBF00"/>
</g>
<defs>
<clipPath id="clip0_1153_1113">
<rect width="247" height="67" fill="white"/>
</clipPath>
</defs>
</svg>
